<?xml version="1.0" encoding="utf-8"?>
<svg version="1.1" xmlns="http://www.w3.org/2000/svg" xmlns:xlink="http://www.w3.org/1999/xlink" x="0px" y="0px"
	 viewBox="0 0 299.9 348.7" style="enable-background:new 0 0 299.9 348.7;" xml:space="preserve">
<path fill="#A51DE1" d="M68.2,326.6c-7.7-0.1-14.2-6.7-16.3-14.2c-16.3,2.3-35.7-11-37.6-26.6c-2.4-20.3,17.8-24,19.4-32.4
	c1.4-7.4-12.2-8.8-12.7-29.8c-0.4-15.3,9.3-28.4,26.6-33.9c4.5-1.4,9.3-1.9,14-1.3c2.4,0.3,4.5-1.4,4.8-3.8v-0.1c0,0,0,0,0-0.1
	c0.6-6.9-3.7-11.8-7.9-14.6c-5.8-3.8-16.6-2.5-21.6-0.2c-13.4,6-25,7.4-27.7-6.3c-2.3-12,7.8-19.5,20.2-16.8
	c10.6,2.3,14.2,4.7,20.3,4c8.3-0.9,16.3-16.2,14-26.7c-0.9-4.1-6.4-9.5-11.8-9.9C29,112.4,42.2,80.7,58.3,97
	c8.4,8.6,19.2,6.1,25-0.3c4.5-5,10.3-14.9,6-22.7c-5.6-10-22.1-15.8-18.1-29.5c3.2-10.7,13.3-13.9,22.1-6.9
	c9.6,7.6,2.7,21.9,10.2,29.6c13.9,14.3,41,7.3,47.5-3.7c3.2-5.4,4.3-10.4,3.5-16.2c-1.8-11.6,0.9-24.5,15-25.9
	c10-1,19.7,7.8,14.4,20.7c-3.9,9.6-9.7,12.5-12.4,20.3c-2.4,7-3.5,16.3,5.3,21.8c10.2,6.3,18.5,1.8,20.2-2.8
	c2.8-7.5,9.7-14.8,16.5-9.1c7.5,6.3,3.5,15.2-5.6,17.5c-4.3,1.1-6.4,6.4-5.2,11.4c1.4,5.8,9.2,12.6,14.2,13.5
	c6.6,1.2,10-2.7,16.2-8.9c8.6-8.7,23.6-13.7,31.5-1.8c6.1,9.3-1.6,22-13.3,22.6c-6.1,0.3-15.8-5.9-24,4.9c-2.8,3.7-5.2,8.2-4.1,13.8
	c0.7,4,2.8,7.7,6.9,7.3c13.9-1.4,11.3,18.7-2.3,13.3c-4.1-1.6-9,2.8-9.9,10c-1,8,0.6,13.2,7.7,17.5c7.4,4.4,11.7,2.1,20.8,8.5
	c9.4,6.6,11.4,16.9,2.4,27.3c-6.2,7.2-20.9,7.7-26.8-9.3c-2-5.4-5.9-9.9-10.9-12.7c-5.5-2.9-11.6-3.5-18.1,2.6
	c-6.8,6.4-5.7,15.8-1.2,19.2c9.7,7.4,11.6,11.5,8.7,18.2c-2.5,5.7-11,9.8-17,3.3c-5.8-6.2-2-11.5-5.4-16.6c-4.3-6.3-12-7.4-18-6.2
	c-9.1,1.7-18.4,7.6-18.8,14.5c-0.5,7.9,8.6,15.6,5,25.7c-5.8,16.1-23.3,17.6-29.4,3.3c-5.6-13.3,9.6-23.9,5.3-37.3
	c-2.7-7.7-8.4-13.9-15.9-17.1c-2.2-0.9-4.8,0.1-5.7,2.3c-0.3,0.8-0.4,1.7-0.2,2.6c2.2,10.1-1.3,19.5-8.6,27.6
	c-11.8,13.2-22.1,9.2-25.4,18.5c-1.8,5,8,11.6,6.8,22.9c5.8,1.1,10.9,4.5,14,9.5C93.8,312.6,81.6,326.8,68.2,326.6z M104.9,346.8
	c4.7-3.5,7.9-12.3,0.9-18.7c-7.1-6.5-18.8,0.8-18.1,9.1C88.4,345.4,97.9,352,104.9,346.8L104.9,346.8z M12.7,302.6
	C8,298.4-0.3,303.5,0,309c0.3,5.4,6.7,9.6,11.6,6C14.9,312.7,17.3,306.7,12.7,302.6L12.7,302.6z M233.7,246.6
	c-3.2,5.1,2.8,11.5,7.8,10c4.9-1.4,7.8-8,3.8-11.7C242.6,242.5,236.8,241.6,233.7,246.6L233.7,246.6z M114,299.7
	c2.4,3.1,7.6,0.9,7.9-2.5c0.2-3.3-3.1-6.6-6.3-5c-2.4,1.3-3.4,4.2-2.1,6.7C113.7,299.2,113.8,299.4,114,299.7z M109.4,279.4
	c0.4-5-4.7-9.9-9.4-7.5c-3.1,1.6-5.9,6.7-2.4,11.2C101.3,287.7,109.1,284.4,109.4,279.4z M124.9,32.5c-0.2-9.9-9.5-14.3-16.8-11.3
	s-7.2,14.4-1.6,19.4C113.3,46.6,125.1,40.4,124.9,32.5L124.9,32.5z M123.9,6.4c0.8-2.6-0.6-5.4-3.2-6.2c-0.3-0.1-0.6-0.2-0.9-0.2
	c-3.9-0.5-6,4.8-3.8,7.3C118.1,9.9,122.8,9.8,123.9,6.4L123.9,6.4z M149.3,9.8c1.1-3.4-0.5-8.9-6.2-9.6c-5.8-0.7-9,7.1-5.7,11
	C140.6,14.9,147.7,14.8,149.3,9.8L149.3,9.8z M18.3,217.3c0.4-5-4.7-9.9-9.4-7.4c-3.1,1.6-5.9,6.7-2.4,11.2
	C10.2,225.7,17.9,222.4,18.3,217.3z M25.5,120.2c-4.7-4.3-13.6-3-14.9,3.6c-0.8,4.4,2,11.2,9.3,11.2
	C27.5,134.9,30.3,124.5,25.5,120.2z M17.7,110.3c2.3-3.2,1-8.5-3.1-8.8c-3.2-0.3-6,2.1-6.2,5.3c0,0.4,0,0.7,0,1.1
	C8.9,112.4,15.4,113.5,17.7,110.3z M257.2,252.2c1.5,3.6,6.7,5.3,9.2,2c1.9-2.6,1.3-6.2-1.2-8.1c-0.3-0.2-0.6-0.4-1-0.6
	C260,243.5,255.7,248.5,257.2,252.2z M281.4,125c0.9,8.1,12.4,9.9,16.5,4.3c4.1-5.6,1.8-15-5.5-15.6
	C287.5,113.3,280.5,117.2,281.4,125L281.4,125z"/>
</svg>