<?xml version="1.0" encoding="utf-8"?>
<svg version="1.1" xmlns="http://www.w3.org/2000/svg" xmlns:xlink="http://www.w3.org/1999/xlink" x="0px" y="0px"
	 viewBox="0 0 167.1 110.8" style="enable-background:new 0 0 167.1 110.8;" xml:space="preserve">
<path fill="#A51DE1" d="M18.9,94.4c-6.9,3-12.4-2.2-13.4-6.7c-1.5-6.8,6.3-11.5,12.6-9.4C24.4,80.4,26,91.3,18.9,94.4z M10.6,70.3
	c0.9-3.9-2.5-8.4-6.5-7.1c-3.1,1-4.8,4.4-3.7,7.5c0.1,0.4,0.3,0.7,0.5,1C3.1,76,9.7,74.3,10.6,70.3z M131.3,0
	c-16.8,0.2-15.4,14.6-20.4,15.9c-7.3,1.9-9.2-6.3-22.5-8.1c-12.7-1.7-24.7,4.9-29.1,20.6c-2.5,9.1-0.6,16.1,3.2,24.1
	c2.2,4.6-10.3,0.5-19.1,4.8c-11.5,5.6-17,19.2-10.8,34.3c3.7,8.9,14.2,19.1,28.4,19.2c13.8,0.1,21.8-6,25.7-16.9
	c5.9-16.2-6.5-26.9-0.7-26.7c6.3,0.2,11.3-0.4,15.9-4c13-10.4,8.1-18.4,13.4-20.7c6-2.6,16.9,8.6,28.7-1.6
	C156.6,30.1,152-0.2,131.3,0L131.3,0z M46.2,21.9c7.5,1.9,13-7.6,9.3-13.2C52,3.2,42.9,2.1,39.9,8.3C37.9,12.5,39,20,46.2,21.9z
	 M163.7,30.1c-2.9-1.1-7.7,0-8.3,4.6c-0.6,4.8,6.1,7.8,9.5,5.2C168.1,37.5,168,31.7,163.7,30.1z"/>
</svg>