<?xml version="1.0" encoding="utf-8"?>
<svg version="1.1" xmlns="http://www.w3.org/2000/svg" xmlns:xlink="http://www.w3.org/1999/xlink" x="0px" y="0px"
	 viewBox="0 0 239.1 174.3" style="enable-background:new 0 0 239.1 174.3;" xml:space="preserve">
<path fill="#A51DE1" d="M127.9,56.4c6.1-8-13.4-28.3,12-48.6c31.2-25,74.4,15.6,68.2,47c-5.8,29.5-35.7,25.5-41.8,36.6c-5.3,9.8,13.1,17.8,4.3,47.5
	c-6.4,21.6-26,35.6-52.6,35.4c-27.5-0.2-46.6-23.7-53.7-40.8C52.3,104.3,62.6,83.3,84,70.9C106.4,57.7,119,68,127.9,56.4z
	 M36.6,142.6c13.7-5.9,10.6-27.1-1.6-31.3c-12-4.1-27.2,5.1-24.3,18.2C12.8,138.3,23.3,148.4,36.6,142.6L36.6,142.6z M1.6,99
	c4.5,8,17.2,4.8,19-2.9c1.7-7.6-4.9-16.3-12.7-13.7C2.7,84.1-2.8,91.2,1.6,99z M218.1,31.9c4.7,8,18.6,4.6,20.6-3.3
	c2-7.8-5-16.5-13.5-13.7C219.6,16.8,213.5,24.1,218.1,31.9L218.1,31.9z"/>
</svg>