<?xml version="1.0" encoding="utf-8"?>
<svg version="1.1" xmlns="http://www.w3.org/2000/svg" xmlns:xlink="http://www.w3.org/1999/xlink" x="0px" y="0px"
	 viewBox="0 0 484.3 481.5" style="enable-background:new 0 0 484.3 481.5;" xml:space="preserve">
<path fill="#A51DE1" d="M483.2,324.7c-3.8,7.9-15.4,6.5-19.9-0.5c-4.6-7.1,2.5-19.2,11.9-16.7C484.4,309.9,485.7,319.4,483.2,324.7z M464.5,338
	c-4,3.2-4.1,10.4,1,12.2c3.4,1.2,9.1-0.2,10-6C476.4,338.3,468.5,334.7,464.5,338L464.5,338z M446.1,258
	c-13.7-10.9-26.4-11.2-38.9-3.4c-18.6,11.5-14.7,31.9-20.4,27.1c-6.1-5.1-11.5-8.5-19-8.4c-21.1,0.1-22.6,11.9-29.6,10
	c-8-2.2-10.1-21.9-29.8-21c-0.5,0-0.9,0.1-1.4,0.1c-0.1-1.3,0-2.7,0.2-4c0.7-4.3,4-8.4,11.3-9c12.1-1.1,8.9-19.5,17.3-21.3
	c11.1-2.3,16.8,6.4,24.6-0.3c10.2-8.7,5.7-24.4-6.7-28.9h0c-1.2-0.5-2.5-1-3.8-1.3c-7.7-1.9-16.6,0.6-24.9,0.3
	c-7.2-0.2-15-3.5-14-15.7c0.3-4.4,5.5-9.9,13.1-8.6c16.4,2.9,22.4-3.1,21-10.1c-1.4-6.8-8.3-10.3-21.3-4.7
	c-7.7,3.3-14.6-0.1-16.4-3.2c-5-8.1-4.1-12.3-0.9-16.7c4-5.5,10.2-8.9,17-9.4c14.4-0.7,20.4-2.5,26.9-11.7
	c7.6-10.8,0.9-24-11.4-26.7c-10.8-2.4-20.8,3-27.4,11.2c-5.8,7-18.5,22.1-36.4,8.3c-20.5-15.8,14.3-39.9,20.7-49.5
	c14.4-22-7-47-30.9-34.9C253.8,32,251.3,44,249.7,55.5c-1.3,9.1,1.1,21-7.9,25.7c-13.5,7.1-45.4,0.9-47.1-13.6
	c-1.3-11,2.2-18.3,4.4-28.7c2.4-11.5-0.8-23-13.4-26.1c-10.5-2.5-21.2,3.5-24.5,13.8c-4.6,15.3,20.4,43.4,6.7,55.1l0,0
	c0,0-0.1,0.1-0.1,0.1c-0.2,0.1-0.3,0.3-0.5,0.4c-0.1,0.1-0.2,0.1-0.2,0.2c-0.2,0.1-0.4,0.3-0.6,0.4l-0.2,0.1
	c-0.2,0.1-0.4,0.3-0.6,0.4c-0.1,0-0.1,0.1-0.2,0.1c-0.3,0.1-0.5,0.3-0.8,0.4l-0.2,0.1c-0.3,0.1-0.6,0.3-0.9,0.4l0,0
	c-6.3,2.7-13.5,2.5-17.1-0.6c-6-5.3-7.8-9.5-7.8-14.9c0-7.9-8.6-11.6-13.3-10c-6.2,2.1-11.2,9.7-3.1,18.1c5.3,5.6,9,8.9,9,15.3
	c0,11.6-5.8,14.1-9.3,15.1l0,0h0c-0.6,0.2-1.2,0.3-1.8,0.4l0,0c-17.3,2.8-24.6-28.1-34.2-37.4c-13.2-12.9-35.1-8-40.2,10.2
	c-6.3,22.8,14.6,39.5,33.9,42.3c12,1.8,18.7,8.5,16.7,18.7c-1.7,9.1-11.5,14.3-22,6.8c-10.6-7.7-22.3-7.7-25.5,1.9
	c-3.2,9.7,7.8,17.7,20.7,15.7c10.7-1.7,19.8,2.9,18.5,13.5c-1,8.3-6.5,12.5-17.4,10.8c-10.9-1.6-20.9-9.5-34-5.2
	c-10.4,3.4-14.6,14.4-9.7,23.6l0,0c3.1,6.3,12.1,15,25.4,16.1s24.1-4,30.8,1.3c5.1,4.1,6.8,11.6,3.6,17c-0.8,1.1-1.8,2.2-2.8,3.2
	l0,0l-1.2,1c0.1-0.1,0.2-0.1,0.3-0.2c-7.8,6.1-24.5,6.4-27.8,16.7c-3.2,10.1,4.7,17.9,10.9,18.6c4.7,0.6,8-0.6,10.6-2.9l0,0
	c6.7-5.2,10.5-9.5,19.3-7.9c9.7,1.8,3.9,14,9,20.6c8.5,11.1,12.9,2.4,17.4,14.2c5.1,13.5,13.5,50.2,9.2,73.7
	c-1.1,5.8,0.3,17.2,12.7,16c8.7-0.9,12.3-9.4,10.4-18.8c-3.1-15.3,0-26.6,3.2-33.6c2.6-5.9,7.3-6.6,13.2-3.1
	c13,7.7,13.3,82.9,13.6,99c0.2,14.3-2.5,40.4,16,41.8c14.7,1.1,17.7-13.8,18.7-32.3c1.2-22.2,1.1-61.7,6.4-79.1
	c3.6-11.8,10.8-15.2,15.9-9.1c5.9,7-0.3,20.3,14.8,24.4c9.4,2.6,17.8-4.1,17.6-24.7c-0.2-17.2,0.5-56.7,6.2-64.8
	c0.1,6.8,3.4,13.2,8.9,17.3c16.9,13.1,26.8-2.5,32.9,0.2c8.8,3.9,4.1,13.5,16,25.8c11.3,11.7,28.5,14.6,45.2,2.4
	c9.6-7,13.3-15.6,15.7-26.5c1.4-6.4,10.6,7.6,22.8,10.3c15.9,3.4,32-5.7,37.7-25.7C462.6,287.8,460.2,269.3,446.1,258L446.1,258z
	 M371.2,364c-0.7,8.3,7.5,16.6,15.4,12.7c5.3-2.6,10.1-10.9,4.3-18.5C385,350.4,371.9,355.6,371.2,364z M91.6,48.4
	c15-9.7,2.4-34.5-13.3-23.5c-6.2,4.3-9.1,12.5-4.3,18.9C77.9,48.9,85.9,52.1,91.6,48.4z M386.1,175.5c4.6-10.3-8.9-22-17-12.4
	C358.6,175.5,380.4,188.2,386.1,175.5z M82.5,11.1c6.7-1.7,5.4-12.3-1.8-11C73.8,1.4,75.8,12.8,82.5,11.1z M111.3,25.1
	c10.2-2.5,7.9-18.7-2.9-16.4C98.3,10.9,101.5,27.5,111.3,25.1L111.3,25.1z M359.5,253.9c-5.4-3.1-11.4,0.4-13.5,5.9
	c-4.5,11.7,14,20.3,19.1,9C368,262.5,365.2,257.2,359.5,253.9L359.5,253.9z M15.6,148.4C2,143-6.7,165.2,6.7,169.6
	C20.1,174,29.7,154,15.6,148.4z M74.5,306.9c-5.7-1.6-9.7,1.6-11.4,5.7c-1.2,2.9-1.5,8.1,4.4,10.6s10.1-1,11.5-4.4
	S80.2,308.5,74.5,306.9L74.5,306.9z"/>
</svg>