<?xml version="1.0" encoding="utf-8"?>
<svg version="1.1" xmlns="http://www.w3.org/2000/svg" xmlns:xlink="http://www.w3.org/1999/xlink" x="0px" y="0px"
	 viewBox="0 0 316.1 266.1" style="enable-background:new 0 0 316.1 266.1;" xml:space="preserve">
<path fill="#A51DE1" d="M239.3,45.6c10.2,9.4,8.2,24.1-6.1,34.8c-13,9.8-24.7,9.3-33.4,24.6c-6.8,11.8,2.2,32.6,7.6,36.4c7.1,5,16.9,7.7,25.3,6.2
	c10.1-1.8,19.4,1.5,23.9,8.5c8.2,12.7-5.3,25.3-24,17.6c-14.9-6.1-28.1-15.5-32.9-3c-9.5,24.6-28.2,24.6-20.2,43
	c3.1,7,15.2,14,12.4,22.5c-2.7,8.3-11.2,11.9-18.7,8.6c-9.4-4.1-11.6-11.7-12.7-19c-1.5-9.9-6-19.3-13.3-18
	c-19.4,3.3-26.6-6.7-36.8-1.5c-4.9,2.6-13.7,11.1-17.3,18.5c-4.7,9.8-9.9,20.8-20.5,23.2c-10.8,2.5-20-9.8-14.2-21.3
	c5.6-11.1,18.1-18.6,20.3-20.5c10.8-9,9.6-21.1-1.4-34.6c-11.9-14.5-2.9-17.5-12.1-34.2c-4.9-8.9-8-11-27.4-7.3
	c-17.3,3.3-35.2-7.2-32.1-21.8c3.3-15.3,21.3-17,34.8-7.4c14.9,10.6,29.9,20.2,36.9,7.9c12.2-21.5,24.1-26.7,42-31.5
	c9.3-2.5,6-16.5-0.4-29.6c-10.8-22-7.2-33.8,3.4-42.8c11.2-9.4,23.9-4.3,26.6,6.2c4.7,18.1-10.3,27.4-11.1,46.1
	c-0.3,8.6,5.6,20.9,14.5,19.8c14.1-1.9,19.8,3.4,25.7,10.5c8.5,10.4,26.1-13.6,31.4-26.9C215,46.7,229.8,36.9,239.3,45.6z M46.3,199
	c-3.8-11.4-19.3-23.3-36.2-13.8c-17.4,9.8-10.4,37.6,6.4,41.4C33.1,230.5,52.1,216.1,46.3,199z M80.3,34.7
	c4.5-6.9,4.2-20.6-8.6-26.1C58.6,3,46.4,18.6,51.8,29.6C57.1,40.5,73.5,45,80.3,34.7L80.3,34.7z M21.3,243.7
	c-7.8,3.6-10.8,15.2-3.1,20.3c5.1,3.4,15.1,3.4,18.8-5.7C40.8,249.1,29.2,240,21.3,243.7L21.3,243.7z M292.9,179.2
	c-0.8,5.9,3.4,14.7,13.2,14.3c10-0.4,13.2-14.4,6.5-19.9C306,168.2,294.2,170.3,292.9,179.2L292.9,179.2z"/>
</svg>