<?xml version="1.0" encoding="utf-8"?>
<svg version="1.1" xmlns="http://www.w3.org/2000/svg" xmlns:xlink="http://www.w3.org/1999/xlink" x="0px" y="0px"
	 viewBox="0 0 386.6 403" style="enable-background:new 0 0 386.6 403;" xml:space="preserve">
<path fill="#A51DE1" d="M310.5,32c8.9,1.6,15.3,10.6,16.2,19.8c19.5,0.6,39.5,19.9,38.6,38.4c-1.2,24.1-25.4,24.5-28.9,34
	c-3.1,8.4,12.5,12.6,9,37.3c-2.6,17.9-16.5,31.3-37.7,34.3c-5.5,0.8-11.2,0.3-16.6-1.3c-2.7-0.8-5.6,0.7-6.4,3.4c0,0,0,0.1,0,0.1
	c0,0,0,0,0,0.1c-2.1,7.9,2,14.5,6.4,18.6c6,5.6,18.8,6.2,25.2,4.5c16.8-4.4,30.7-3.7,31.1,12.8c0.4,14.5-13,21.2-26.9,15.6
	c-11.9-4.8-15.6-8.2-22.9-8.7c-9.9-0.6-22.2,15.6-21.6,28.4c0.2,4.9,5.5,12.4,11.8,13.8c26.4,6.3,4.8,40.7-10.7,18.4
	c-8.1-11.7-21.2-10.9-29.2-4.5c-6.3,5-15,15.3-11.4,25.3c4.5,12.7,22.7,22.8,15.3,38c-5.8,11.9-18.3,13.5-27.1,3.8
	c-9.7-10.8,1.2-26.1-6-36.6c-13.4-19.5-46.4-16.6-56.1-5.1c-4.8,5.7-7.1,11.3-7.2,18.2c-0.2,13.9-5.8,28.4-22.6,27.2
	c-11.8-0.8-21.5-12.9-12.8-27c6.4-10.4,13.8-12.7,18.4-21.3c4.1-7.7,7.3-18.4-1.9-26.4c-10.6-9.3-21.2-5.7-24.1-0.7
	c-4.7,8.2-14.3,15.3-21,7.3c-7.5-8.9-1.1-18.5,10-19.4c5.2-0.4,8.7-6.3,8.3-12.3c-0.5-7.1-8.3-16.5-13.9-18.5
	c-7.5-2.7-12.2,1.2-20.6,7.2c-11.7,8.4-30.2,11.3-37.1-4.1c-5.3-12,6.1-25.3,20-23.7c7.2,0.8,17.3,10,29-1c4-3.8,7.6-8.5,7.5-15.3
	c-0.1-4.8-1.8-9.6-6.6-9.9c-16.4-1.1-9.5-24,5.3-15.1c4.5,2.7,11.1-1.4,13.5-9.8c2.7-9.2,1.9-15.5-5.6-21.9
	c-7.7-6.6-13.2-4.7-22.6-14c-9.6-9.5-10-22,2.6-32.3c8.7-7.1,25.9-4.9,29.5,16.1c1.3,6.7,4.9,12.8,10.2,17
	c5.8,4.5,12.8,6.4,21.6,0.5c9.2-6.2,9.8-17.3,5.2-22.1c-9.9-10.5-11.3-15.7-6.5-23c4-6.2,14.8-9.2,20.5-0.5
	c5.5,8.4,0.1,13.9,3.1,20.4c3.8,8.2,12.6,11,19.8,10.8c10.9-0.2,22.9-5.3,24.7-13.2c2.1-9.1-7-19.9-0.7-31c10-17.6,30.7-16,35,1.9
	c4,16.6-15.9,26-13.5,42.5c1.6,9.5,7.1,17.8,15.2,23c2.4,1.5,5.6,0.8,7.1-1.6c0.6-0.9,0.8-1.9,0.8-3c-0.6-12.2,5.4-22.5,15.4-30.5
	c16.4-13.1,27.6-6.4,33.3-16.6c3-5.5-7.1-15.1-3.4-28.1c-6.5-2.4-11.8-7.4-14.5-13.8C277.8,43.3,294.9,29.2,310.5,32z M271.7,1.2
	c-6.1,3.1-11.6,12.9-4.8,21.6c7,9,22.1,2.8,22.9-7.1C290.5,6.1,280.8-3.4,271.7,1.2L271.7,1.2z M370.5,70.8c4.7,5.8,15.3,1.5,16-5
	c0.7-6.4-5.9-12.5-12.3-9.3C369.9,58.6,365.9,65.2,370.5,70.8L370.5,70.8z M101.6,92.8c4.7-5.4-1-13.9-7.1-13.2
	c-6,0.7-10.7,7.8-6.7,12.9C90.4,95.9,97.1,98,101.6,92.8L101.6,92.8z M251.7,54.4c-2.2-4.1-8.7-2.5-9.7,1.4
	c-0.9,3.9,2.4,8.3,6.4,7.1c3.1-1,4.8-4.3,3.8-7.4C252,55.1,251.9,54.7,251.7,54.4L251.7,54.4z M253.1,79c-1.4,5.8,3.5,12.5,9.5,10.5
	c4-1.3,8.2-6.6,5-12.6C264.2,70.8,254.5,73.1,253.1,79L253.1,79z M186.5,363.9c-1.7,11.6,8.3,18.6,17.3,16.5s11.2-15.4,5.7-22.3
	C202.8,349.8,187.8,354.7,186.5,363.9L186.5,363.9z M182.5,394.5c-1.5,2.9-0.3,6.4,2.5,7.9c0.3,0.2,0.7,0.3,1,0.4
	c4.5,1.3,8-4.4,5.9-7.8C189.9,391.6,184.5,390.8,182.5,394.5L182.5,394.5z M153.6,385.7c-1.9,3.7-1.1,10.5,5.4,12.4
	c6.7,2,11.9-6.5,8.8-11.7C164.7,381.3,156.5,380.1,153.6,385.7z M347.2,169.3c-1.4,5.8,3.5,12.4,9.5,10.5c4-1.3,8.2-6.6,5-12.6
	C358.3,161.1,348.6,163.4,347.2,169.3z M319.7,281.2c4.7,5.9,15.3,6.2,18-1.3c1.8-5-0.2-13.5-8.7-14.9
	C320.3,263.6,315,275.2,319.7,281.2L319.7,281.2z M326.8,294.3c-3.3,3.2-2.8,9.7,1.9,10.9c3.7,0.9,7.4-1.3,8.3-5
	c0.1-0.4,0.2-0.9,0.2-1.3C337.6,293.5,330.2,291,326.8,294.3L326.8,294.3z M75.4,81.7c-1-4.5-6.8-7.5-10.3-4.1
	c-2.7,2.6-2.8,7-0.2,9.7c0.3,0.3,0.6,0.6,1,0.9C70.4,91.2,76.4,86.3,75.4,81.7z M22.2,225.2c0.6-9.6-12.5-14-18.4-8.2
	c-5.8,5.7-5,17.1,3.4,19.3C12.7,237.7,21.6,234.6,22.2,225.2L22.2,225.2z"/>
</svg>