<?xml version="1.0" encoding="utf-8"?>
<svg version="1.1" xmlns="http://www.w3.org/2000/svg" xmlns:xlink="http://www.w3.org/1999/xlink" x="0px" y="0px"
	 viewBox="0 0 211.1 237.3" style="enable-background:new 0 0 211.1 237.3;" xml:space="preserve">
<path fill="#A51DE1" d="M206,128.5c-0.5,4.1-5.8,5.2-8.9,2.8c-3.1-2.4-1.8-8.9,2.7-9.2c3.2-0.2,5.9,2.1,6.2,5.3C206,127.7,206,128.1,206,128.5z
	 M9.1,124.2c-1.8-0.9-4.1-0.2-5,1.7c-0.1,0.2-0.2,0.4-0.3,0.7c-0.8,2.9,2.8,5.1,5,3.8C11,129,11.5,125.5,9.1,124.2z M8.1,107.7
	c-2.8-1.4-6.1-0.3-7.5,2.5c-0.2,0.3-0.3,0.7-0.4,1c-1.2,4.3,4.2,7.6,7.5,5.6C10.9,114.8,11.7,109.5,8.1,107.7L8.1,107.7z
	 M177.3,47.7c3.5-2.4,4.4-7.2,2-10.7c-0.6-0.9-1.4-1.7-2.4-2.2c-4.3-2.7-10.2,1.7-10.7,6.4C165.6,46.9,173.3,50.7,177.3,47.7
	L177.3,47.7z M186.8,34.1c1.4-0.5,2.2-2,1.7-3.4c-0.1-0.2-0.1-0.3-0.2-0.5c-1-1.9-4-1.2-4.5,0.7C183.4,32.6,184.9,34.7,186.8,34.1
	L186.8,34.1z M189.8,47.3c2.2-0.7,3.4-3,2.6-5.2c-0.1-0.3-0.2-0.5-0.3-0.7c-1.6-2.9-6.2-1.8-6.8,1C184.7,45.1,187,48.2,189.8,47.3
	L189.8,47.3z M160.4,200.3c3.2-2,4-7.2,0.4-9.1c-2.8-1.4-6.1-0.3-7.5,2.5c-0.2,0.3-0.3,0.7-0.4,1C151.7,199,157.1,202.3,160.4,200.3
	L160.4,200.3z M76.6,17.1c0.5-4.8-4.1-9.7-8.8-7.6c-3.6,1.7-5.1,5.9-3.4,9.5c0.2,0.4,0.4,0.8,0.7,1.2C68.5,24.8,76.1,22,76.6,17.1z
	 M79.3,8c3,0,5.7-3.1,4.1-5.8c-1.2-2.1-3.9-2.7-6-1.5c-0.2,0.1-0.5,0.3-0.7,0.5C74.1,3.4,76.3,7.9,79.3,8L79.3,8z M203.8,112.7
	c-1.6,2.5-0.3,6.5,2.8,6.5c2.4,0,4.4-1.9,4.4-4.3c0-0.3,0-0.6-0.1-0.8C210.4,110.6,205.4,110.1,203.8,112.7z M46.6,165.1
	c-4.6,4.1-0.6,12,4.7,12c5.2,0,10-5.5,7.2-10.3C56.5,163.6,51.1,161.1,46.6,165.1z M198.9,57.9c-6.6-7.2-16.2-4-22.6,2.2
	c-3.2,3.1-8.2,5-12.9,5.5c-9.6,0.9-20.6-10.5-18.7-20.9c1.5-8,13.3-10.1,13.7-19.4c0.4-8.4-6-13.3-14-10.5
	c-10.2,3.6-5.9,16.3-10.1,23.9c-2.5,4.5-10.5,4.1-15.6,2.9c-6.3-1.4-9.2-3.5-10.8-6.8c-1.8-3.7-1.1-6.7,0.8-12.5
	c2.6-8.3-2.7-11.5-7.7-10.7s-9.7,5.6-5.7,13.3c3.4,6.7,2.1,10.9-0.6,13.5c-5.2,4.9-16.8,10.5-24.4,6.4c-4.1-2.2-3.4-6.5-6.6-14
	c-3.8-8.8-18.2-12.6-23.1-5.3c-5.9,8.8,0,18.5,13,23c3.9,1.4,7,5.8,7.3,11c0.2,3.8-1.9,9.9-4.6,12.1c-4.6,3.8-9.7,3.6-14,0.6
	c-5-3.5-9.3-6.1-15.2-6.4c-6.8-0.4-11.5,2.1-13.4,6.6c-1.8,4.6-0.5,9.9,3.1,13.2c7.7,6.6,16.8-2.1,26.7,2.4
	c8.1,3.7,8.3,18.2,4.4,22.4c-7.3,7.8-19.6,0.3-27.9,7.4c-6.1,5.2-0.6,17.6,9.5,15.6c8-1.6,10.9-8.5,16.9-8.7
	c6.6-0.2,10.9,6.2,8.8,11.6c-1.5,3.8-4.7,3.8-9.1,6.3c-3.9,2.2-5.5,7.1-3.7,11.2c3.3,6.9,10.5,3.8,12.6-0.7
	c4.4-9.4,9.8-7.7,12.1-6.1c4.6,3.2,4.2,10.3,4.5,18.6c0.3,8.4,0.2,16.9-0.4,25.3c-0.7,10.7-1.4,10.7-2.4,16.2
	c-1.2,6.6,2.4,10.1,7.1,9.8c4.3-0.2,7.6-5.1,6.8-9.4c-1.2-6.3-2.9-12-2.9-18.3c0-10.3,1.7-17.2,3.4-21.4c2.3-5.8,3.9-7.7,9.9-7.7
	c6.6,0,9,11.1,10.1,15.7c1.3,5.3,2,13.6,0,29.1c-0.6,4.6-2.7,9.1-3.6,11.8c-4.5,12.8,1.1,20,8.3,20.7c10.4,1,12.7-6.6,11.4-15.2
	c-0.7-4.7-2.9-9.7-3.4-15.5c-1.5-16.8-0.5-26.2,0.4-31.4c1.3-7.6,2.8-11,8.6-12.9c4.2-1.4,7.6,1.3,8.7,9.4c0.6,4.5,0.5,9.2-0.1,13.7
	c-1.2,8.4,1.4,12.5,6.1,12.5c3.2,0,6.7-2.2,5.7-11c-1.5-13.1-0.8-17.7,0.1-23.9c1.8-11.5,8.1-17.2,12.5-17.8c5.2-0.7,7.1,2,8.5,5.1
	c3.3,7,12.2,8.1,14.7,1.4c2.7-7.4-2.7-12.9-9.1-14.8c-4.6-1.3-7.4-2-8.5-5.5c-0.8-2.6,0.8-11.1,4-14.4c3.1-3.2,8.3-3.4,11.6-0.4
	c6.3,6.3,13.6,5.5,14.9-1.5c1.2-6.6-5.8-11-14.4-9.9c-3.3,0.4-6.8-1.3-9.3-3.9c-2.4-2.4-3.8-5.7-4-9.1c-0.5-7.8,2.8-14.5,8.2-16.2
	c6-1.8,11.5,2,18.8-0.7C202.5,72.1,203.8,63.3,198.9,57.9z"/>
</svg>