<?xml version="1.0" encoding="utf-8"?>
<svg version="1.1" xmlns="http://www.w3.org/2000/svg" xmlns:xlink="http://www.w3.org/1999/xlink" x="0px" y="0px"
	 viewBox="0 0 163.3 203.5" style="enable-background:new 0 0 163.3 203.5;" xml:space="preserve">
<path fill="#A51DE1" d="M152.1,96.1c4.3-3.7,2.4-10.3-2.8-12.2l0,0c-0.5-0.2-1.1-0.4-1.6-0.5c-3.2-0.8-7,0.3-10.5,0.1c-3-0.1-6.3-1.5-5.9-6.6
	c0.1-1.8,2.3-4.2,5.5-3.6c6.9,1.2,9.5-1.3,8.9-4.3c-0.6-2.9-3.5-4.4-9-2c-3.2,1.4-6.1-0.1-6.9-1.4c-2.1-3.4-1.7-5.2-0.4-7
	c2-2.7,5-3.9,7.2-4c6.1-0.3,8.6-1.1,11.3-5c3.2-4.6,0.4-10.1-4.8-11.3c-4.6-1-8.8,1.3-11.6,4.7c-2.4,3-7.8,9.3-15.4,3.5
	c-8.6-6.7,6.1-16.8,8.7-20.9c6.1-9.3-2.9-19.8-13-14.7c-4.7,2.4-5.8,7.5-6.5,12.3c-0.5,3.9,0.5,8.9-3.3,10.9
	c-5.7,3-19.1,0.4-19.9-5.7c-0.5-4.7,0.9-7.7,1.8-12.1c1-4.8-0.3-9.7-5.7-11c-4.4-1.1-9,1.5-10.3,5.8c-1.9,6.4,8.6,18.3,2.8,23.3l0,0
	l0,0c-0.1,0.1-0.1,0.1-0.2,0.2c0,0-0.1,0-0.1,0.1c-0.1,0.1-0.2,0.1-0.3,0.2H70c-0.1,0.1-0.2,0.1-0.3,0.2h-0.1
	c-0.1,0.1-0.2,0.1-0.3,0.2h-0.1c-0.1,0.1-0.3,0.1-0.4,0.2c-2.7,1.1-5.7,1.1-7.2-0.3c-2.5-2.2-3.3-4-3.3-6.3c0-3.3-3.6-4.9-5.6-4.2
	c-2.6,0.9-4.7,4.1-1.3,7.6c2.3,2.3,3.8,3.7,3.8,6.5c0,4.9-2.5,5.9-3.9,6.4l0,0c-0.3,0.1-0.5,0.1-0.8,0.2l0,0
	c-7.3,1.2-10.4-11.8-14.4-15.8c-5.6-5.4-14.8-3.4-16.9,4.3c-2.7,9.6,6.1,16.7,14.3,17.9c5.1,0.8,7.9,3.6,7.1,7.9
	c-0.7,3.8-4.9,6.1-9.3,2.9c-4.5-3.2-9.4-3.2-10.7,0.8c-1.4,4.1,3.3,7.5,8.8,6.6c4.5-0.7,8.3,1.2,7.8,5.7c-0.4,3.5-2.7,5.3-7.4,4.6
	c-4.6-0.7-8.8-4-14.4-2.2c-4.4,1.5-6.2,6.1-4.1,10l0,0c1.3,2.7,5.1,6.3,10.7,6.8s10.2-1.7,13,0.6c2.2,1.7,2.9,4.9,1.5,7.2
	c-0.4,0.5-0.8,1-1.2,1.3l-0.5,0.4c0,0,0.1,0,0.1-0.1c-3.3,2.6-10.4,2.7-11.7,7.1c-1.3,4.3,2,7.5,4.6,7.9c2,0.2,3.4-0.3,4.5-1.2l0,0
	c2.8-2.2,4.4-4,8.1-3.3c4.1,0.7,1.7,5.9,3.8,8.7c3.6,4.7,5.5,1,7.3,6c2.1,5.7,5.7,21.2,3.9,31.1c-0.4,2.4,0.1,7.3,5.4,6.8
	c3.7-0.4,5.2-4,4.4-7.9c-1.3-6.5,0-11.2,1.3-14.2c1.1-2.5,3.1-2.8,5.6-1.3c5.5,3.2,5.6,35,5.7,41.8c0.1,6.1-1,17.1,6.7,17.6
	c6.2,0.4,7.5-5.8,7.9-13.6c0.5-9.4,0.4-26,2.7-33.4c1.5-5,4.6-6.4,6.7-3.9c2.5,2.9-0.1,8.5,6.2,10.3c4,1.1,7.5-1.7,7.4-10.4
	c-0.1-8,0.3-27.2,3.4-27.9c3.7-0.9,1.9,6.4,9,7.2c3.7,0.4,7.7-4,7.2-8.4l0,0c-0.7-7.9-6.4-8.2-5.4-14c0.3-1.8,1.7-3.5,4.8-3.8
	c5.1-0.5,3.8-8.2,7.3-9C146.4,95.3,148.8,99,152.1,96.1 M31.4,129.5c-2.4-0.7-4.1,0.7-4.8,2.4c-0.5,1.2-0.6,3.4,1.8,4.5
	c2.5,1,4.3-0.4,4.8-1.8C33.9,133.1,33.8,130.2,31.4,129.5 M6.6,62.6c-5.7-2.3-9.4,7.1-3.8,8.9C8.5,73.4,12.5,65,6.6,62.6 M151.6,119
	c-3.3-1.3-5.4,4-2.2,5C152.6,125.1,155,120.4,151.6,119 M47,10.6c4.3-1.1,3.4-7.9-1.2-6.9C41.5,4.6,42.8,11.6,47,10.6 M34.8,4.7
	C37.6,4,37.1-0.5,34.1,0C31.1,0.6,32,5.4,34.8,4.7 M155.7,68.8c-4.4,5.2,4.8,10.6,7.2,5.2C164.9,69.7,159.1,64.8,155.7,68.8
	 M31.3,18.5c-2-2.7-0.8-6.2,1.8-8c6.6-4.6,11.9,5.8,5.6,9.9C36.3,22,32.9,20.6,31.3,18.5"/>
</svg>