<?xml version="1.0" encoding="utf-8"?>
<svg version="1.1" xmlns="http://www.w3.org/2000/svg" xmlns:xlink="http://www.w3.org/1999/xlink" x="0px" y="0px"
	 viewBox="0 0 484 422" style="enable-background:new 0 0 484 422;" xml:space="preserve">
<path fill="#A51DE1" d="M447.4,179c5.9,9.2,3.1,22.1-4.2,30.4c15.4,17.6,14.7,51-2.3,65.3c-22.2,18.7-42.3-2.4-53.6,2.2
	c-9.9,4.1-0.9,21.3-25.5,38.3c-17.8,12.3-41.1,11-61-5.2c-5.2-4.2-9.4-9.6-12.4-15.6c-1.5-3.1-5.2-4.3-8.2-2.8c0,0-0.1,0-0.1,0.1
	H280c-8.7,4.6-11.1,13.5-11.2,20.7c0,9.8,9.9,21.6,16.5,25.8c17.5,11.2,28.3,24,14,37.8c-12.5,12.1-29.3,5.9-35.6-10.9
	c-5.5-14.4-5.5-20.4-11.1-27.3c-7.5-9.2-31.9-6.8-42.7,4.1c-4.2,4.2-6.4,15-2.6,21.7c16,28.3-31.9,37.3-25,5.6
	c3.7-16.7-7.7-27.5-19.8-29.4c-9.5-1.5-25.8-0.7-31.6,10.6c-7.5,14.3-1.6,38.5-21,44.4c-15.2,4.6-26.8-5.1-25.4-20.8
	c1.6-17.3,24-20.3,27.3-35.1c6.2-27.7-23.2-54.4-41.3-53.5c-9,0.4-15.7,3-21.9,8.5c-12.4,11.1-29.8,18-42.4,2.3
	c-9.1-11.2-6.3-29.5,13.2-33.4c14.4-2.8,22.4,1.8,33.8-1.2c10.2-2.6,22.1-8.6,21.7-23.2c-0.5-17-12.3-23.4-19.1-21.8
	c-11.1,2.6-25.2-0.1-23.6-12.5c1.7-13.8,15.4-16,25.2-7c4.6,4.3,12.6,2.6,17.7-2.7c5.9-6.2,7.7-20.8,5-27.3
	c-3.7-8.8-11-9.8-23.1-12.3c-17-3.5-34.6-17.4-26.6-36c6.2-14.5,27.3-15.2,37.2-1.7c5.1,7,5.3,23.4,24.6,24.7
	c6.6,0.5,13.7-0.2,19.6-5.8c4.2-4,7-9.4,3.4-13.8c-12.4-15.4,13.4-28,17.6-7.6c1.3,6.2,10.3,8.6,19.7,4
	c10.3-5.1,15.3-10.9,14.8-22.8c-0.5-12.2-6.6-15.5-6.1-31.3c0.5-16.2,11.2-26.7,30.5-24c13.4,1.8,25.4,18.8,9.9,39.1
	c-4.9,6.6-7.2,14.7-6.6,22.9c0.8,8.8,4.8,16.5,17.1,19.5c13,3.1,23.2-5.5,23.7-13.5c1.2-17.2,4.6-22.7,14.9-24.5
	c8.8-1.5,20.2,5.5,17.1,17.7c-2.9,11.7-12.1,11.4-15.5,19.4c-4.2,10,0.6,20,6.6,26.2c9.1,9.4,23.3,15.9,31.8,11
	c9.7-5.6,11.8-22.4,26.7-25.9c23.6-5.6,39.1,14,26.9,32.4c-11.4,17-35.9,7.2-48.5,22.7c-7,9.1-9.9,20.8-7.9,32.2
	c0.6,3.4,3.8,5.6,7.2,4.9c1.2-0.2,2.4-0.8,3.2-1.7c10.3-10.4,24.2-13.6,39.4-11.3c24.9,3.7,28.1,19.1,41.8,15.7
	c7.3-1.8,7.5-18.5,22-25.9c-3.2-7.7-3.1-16.4,0.4-24C410.8,159.4,437.2,162.9,447.4,179z M442.9,119.7c-7.7-2.9-20.8,0.3-23,13.4
	c-2.2,13.5,15.6,21.7,24.9,14.4C453.9,140.3,454.4,123.9,442.9,119.7L442.9,119.7z M462.1,263.5c-1.3,8.9,11.2,14.7,17.5,10
	c6.2-4.6,6.2-15.4-1.9-18.5C472.4,253,463.4,254.8,462.1,263.5L462.1,263.5z M223.5,44.6c8.6-0.3,11.5-12.2,5.8-17
	c-5.6-4.7-15.7-3-16.9,4.6C211.6,37.2,215.1,44.8,223.5,44.6L223.5,44.6z M379.7,145.4c1.8-5.3-4.9-9.8-9.1-7.4
	c-4.2,2.3-5.4,8.9-1,11.3c3.4,1.9,7.7,0.7,9.6-2.7C379.4,146.3,379.6,145.8,379.7,145.4z M359.2,166.6c-6.2,3.5-8.1,13.3-1.5,17
	c4.4,2.5,12.5,1.9,15.1-5.9C375.4,169.8,365.5,163.1,359.2,166.6z M53.9,340.3c-11.6,8-9.6,22.4-0.4,28.7s22.7-2.7,24.3-13.2
	C79.5,343.1,63,334,53.9,340.3z M23.6,361.8c-3.7,1-5.9,4.9-4.9,8.7c0.1,0.4,0.3,0.9,0.5,1.3c2.5,5,10.4,3.5,11.7-1.2
	C32.2,365.9,28.5,360.4,23.6,361.8z M7.8,329.1c-4.8,1.3-10.2,7.6-6.6,14.8c3.7,7.5,15.5,5.2,17.5-1.8
	C20.7,335.3,15.1,327.1,7.8,329.1L7.8,329.1z M356.4,323.1c-6.2,3.5-8.1,13.3-1.5,17c4.4,2.5,12.5,1.9,15.1-5.9
	C372.6,326.3,362.7,319.6,356.4,323.1L356.4,323.1z M235.4,390.2c-1.4,9,7,18.5,15.8,14.8c5.9-2.5,11.7-11.1,6-19.8
	C251.3,376.4,236.8,381.1,235.4,390.2L235.4,390.2z M229.6,407.1c-5.6-0.3-10.9,5.4-8.1,10.6c1.9,3.5,7.5,6.4,12.5,2.4
	C239.1,415.9,235.3,407.4,229.6,407.1L229.6,407.1z M211.9,12.4c3.2-4.6,1.1-12.1-4.8-12.4c-3.9-0.2-9.4,3-8.6,9.3
	C199.4,15.8,208.7,17.1,211.9,12.4z M42,82.6c8.9-7.3,2.2-22.4-7.8-22.9C24.4,59.2,15,69.3,20,78.4C23.3,84.4,33.3,89.7,42,82.6z"/>
</svg>