<?xml version="1.0" encoding="utf-8"?>
<svg version="1.1" xmlns="http://www.w3.org/2000/svg" xmlns:xlink="http://www.w3.org/1999/xlink" x="0px" y="0px"
	 viewBox="0 0 473.3 526.4" style="enable-background:new 0 0 473.3 526.4;" xml:space="preserve">
<path fill="#A51DE1" d="M150.3,497.2c1.4-9.6-5.5-23.9-21.1-23.1c-16.1,0.8-21.1,23.4-10.4,32.2C129.4,515.1,148.3,511.6,150.3,497.2
	 M408.3,424.6c2.4-4.4,1.8-12.5-5.9-15c-7.9-2.6-14.5,7.4-11,13.6C395,429.4,404.7,431.2,408.3,424.6 M373.4,407.2
	c-6.7-4.7-19.9-5-25.3,7.1c-5.5,12.4,9.5,24.8,20.2,20.1C378.8,429.7,383.4,414.2,373.4,407.2 M458,335.7c9,1.2,18.3-7.4,14.4-16.2
	c-2.6-5.8-11.4-11.4-19.9-5.5C443.8,320.1,448.9,334.5,458,335.7 M235.7,8c-2.6-5.8-11.4-11.4-19.9-5.5c-8.7,6.1-3.6,20.5,5.5,21.7
	C230.3,25.4,239.6,16.8,235.7,8 M222.7,54.2c-1.7-3.9-7.6-7.6-13.3-3.7c-5.8,4-2.4,13.7,3.7,14.5C219,65.8,225.3,60,222.7,54.2
	 M37.3,229.4c-4.2-13.5-22.5-21.1-32.3-9.9c-6.5,7.5-8.6,23.6,5.3,31.8C24.6,259.7,41.6,243.1,37.3,229.4 M37.3,275.3
	c-2.8-8.9-14.8-13.9-21.3-6.5c-4.3,4.9-5.7,15.6,3.5,20.9C28.9,295.3,40.1,284.3,37.3,275.3 M260.2,63.9c16.2-0.1,24.7-22.6,15-32.9
	c-12.2-13.1-30-7.9-36.2,4.8C232.8,48.5,246.7,63.9,260.2,63.9 M206.7,427.4c-12.9-2.8-24.8-0.2-36.5,8.7
	c-16.7,12.6-31.8,1.6-31.5-9.1c0.6-25.9-31.5-50.7-56-44c-14.6,4-24.5,27.6-46.3,21c-11.5-3.5-18-20.9-11.6-32.3
	c10.2-18.1,24.5-9.5,38.9-14.5c16.6-5.8,25.1-23.7,22.6-44c-3.6-29.4-24.3-24.2-25-41c-0.5-10.9,7-19.3,19.6-22.7
	c12-3.2,39.1-26.5,25.6-59.4c-10.1-24.6-34.2-19.6-43.6-49.4c-5-15.8-3.6-27.2,8.2-35.6c11.5-8.2,27.2-5.3,39.9,11.1
	c13.3,17.3,7.7,40.5,30,54.1c19.3,11.8,45.1-1.1,56-17.3c6.8-10.1,7.2-17.7,0.9-34.7c-14.6-39.1,52.4-39.1,40.7,9
	c-2.9,12,6.3,26.8,16.9,33.4c13.2,8.2,36.2,12.1,47.2,0.3c13.2-14.3,6.8-29.5,15.8-44.2c14-23.1,46-19.1,57.4-5.7
	c13,15.3,13.6,35.8-5.9,50.8c-24.5,18.7-34.8,25.2-36.7,42.8c-2.2,20,8,37.8,27.3,42.6c28.8,7.2,46.2-23.4,75.6-21
	c21.6,1.8,45.8,37.1,16.7,64.6c-21.2,20-56.3-7-76.1,1.7c-22.5,9.8-24.8,43.6-18.1,61c7.8,20.1-1.8,36.6-22.6,33.6
	c-9.8-1.4-25.8,2.4-35.2,13.7c-9.6,11.6-13.8,21.8-11.1,37.1c2.5,14.2,13.2,17.3,22.1,33.6c11.6,21.4,2.5,46.4-24.6,53.6
	c-19.1,5.1-35-5.5-40.3-19.1c-8.3-21.3,1.3-34-0.7-49.6C243.6,436.6,228.2,432.1,206.7,427.4"/>
</svg>