<?xml version="1.0" encoding="utf-8"?>
<svg version="1.1" xmlns="http://www.w3.org/2000/svg" xmlns:xlink="http://www.w3.org/1999/xlink" x="0px" y="0px"
	 viewBox="0 0 164.9 108.6" style="enable-background:new 0 0 164.9 108.6;" xml:space="preserve">
<path fill="#A51DE1" d="M140.3,41.2c-0.7,7.7-7.8,13.8-15.5,15.4c1.1,16.6-13.7,35.2-29.6,35.9c-20.6,1-22.8-19.6-31.2-21.9
	c-7.4-2-9.7,11.6-30.9,10.6c-15.4-0.7-28-11.5-32.2-29.3C-3.6,33.6,9,17,19.2,9.5c17.5-12.8,33.2-9.4,45,2.8
	c12.4,12.9,7.6,22.9,16.8,27c4.9,2.1,12.3-7.2,23.6-5.1c1.5-5.8,5.4-10.6,10.6-13.4C128,14.3,141.5,27.7,140.3,41.2z M163.4,5.7
	c-3.1-5-11.9-8.8-18.8-2.3c-7.1,6.7-0.6,19,7.8,18.9C160.7,22.2,168,13.1,163.4,5.7z M112.1,95.4c-4.6,4.5,0,13.2,5.6,13.2
	c5.5,0.1,10.2-6,6.9-11.3C122.4,93.9,116.6,91,112.1,95.4z"/>
</svg>