<?xml version="1.0" encoding="utf-8"?>
<svg version="1.1" xmlns="http://www.w3.org/2000/svg" xmlns:xlink="http://www.w3.org/1999/xlink" x="0px" y="0px"
	 viewBox="0 0 382.3 330.5" style="enable-background:new 0 0 382.3 330.5;" xml:space="preserve">
<path fill="#A51DE1" d="M28.3,152.8c-6.8-0.8-8.7-9.7-4.7-14.8c4-5.2,14.8-3.1,15.3,4.5C39.5,150,32.8,153.4,28.3,152.8z M126.3,9
	c1.6-3.1,0.3-6.8-2.7-8.4c-0.4-0.2-0.7-0.3-1.1-0.4c-4.8-1.4-8.5,4.7-6.2,8.4C118.4,12.1,124.2,13,126.3,9z M157.1,18.3
	c2-4,1.2-11.2-5.8-13.2c-7.1-2.1-12.7,7-9.3,12.5C145.3,23,154.1,24.3,157.1,18.3L157.1,18.3z M307.7,281.6
	c7.5,10,20.2,7.7,25.5-0.8s-3.3-20.1-12.6-21C309.3,258.8,301.8,273.8,307.7,281.6L307.7,281.6z M327.9,307.6c1.1,3.3,4.6,5.1,7.9,4
	c0.4-0.1,0.8-0.3,1.1-0.5c4.3-2.4,2.7-9.3-1.5-10.3C331.3,299.8,326.5,303.4,327.9,307.6L327.9,307.6z M365.1,187
	c1.4,4.2,7.1,8.7,13.4,5.2c6.5-3.6,4-13.9-2.2-15.4C370.1,175.4,363,180.7,365.1,187L365.1,187z M280.9,14.1
	c3.3,5.4,12.1,6.7,15.1,0.7c2-4,1.2-11.2-5.8-13.2C283.1-0.4,277.6,8.6,280.9,14.1L280.9,14.1z M345,118.8c8,0.9,16.2-6.9,12.6-14.6
	c-2.4-5.2-10.3-9.9-17.8-4.6C332.2,105.2,336.9,117.9,345,118.8L345,118.8z M360.2,123.3c0,4.9,5.2,9.4,9.7,6.7
	c3-1.8,5.4-6.9,1.7-11.1C367.7,114.5,360.3,118.3,360.2,123.3L360.2,123.3z M10.8,154.1c-4.2-2.6-10.8-0.5-10.8,4.7
	c0,3.5,3.1,8.2,8.6,7.2C14.3,165.1,15.1,156.8,10.8,154.1L10.8,154.1z M79.6,302c-6.8-7.6-20-1.1-20,7.8
	c-0.1,8.7,9.2,16.6,17.1,11.9C81.9,318.5,86.2,309.5,79.6,302L79.6,302z M270.3,325.7c13.5-11.8,6.7-27-3.6-37.5
	c-5.2-5.3-7.7-11.2-8.4-19.1c-1.5-16,21.1-43.1,45.9-38.7c13.3,2.4,16.8,22.1,32.2,22.8c14,0.7,22.2-10,17.5-23.3
	c-6-17-27.2-10.8-40.2-16.9c-10.2-4.8-11.5-19.2-10.6-27.7c1.2-10.8,10.4-21.3,25.3-18.7c28.5,5,18.6-37.2-5.9-21.9
	c-5.8,3.6-15.4,2.1-19.3-1.4c-10.1-9.2-13.2-30.7-5.3-37.7c5.8-5.2,12-3.2,24.6-8.6c14.7-6.3,21-30.3,8.8-38.5
	c-14.7-9.8-30.7,0-38.2,21.6c-2.3,6.5-9.6,11.7-18.3,12.1c-6.4,0.3-18.5-6.6-22.2-11.1c-6.3-7.6-3.8-12.7,1.2-19.8
	c5.8-8.3,10.1-15.5,10.6-25.2c0.6-11.3-3.6-19.2-10.9-22.3c-5.8-2.5-15.9-1.8-22,5.2c-11,12.8,5.6,30.8-6.7,44.1
	c-12.7,13.8-53.5,14.5-61.8,10c-15.7-8.4-6.5-32.7-22-42.1c-16.8-10.2-33.6,4.3-27.7,25c3.7,13,18.6,14.2,24,22.7
	c4.6,7.3-0.5,20.2-8.6,28.6c-5.3,5.6-13.9,10.2-23,6.8c-7.2-2.7-7.3-10.8-17.8-13c-11-2.2-16.7,8.1-15,15.9
	c2,9.1,6.9,11.9,22.3,12.3c7.1,0.2,15.1,8.9,12.8,20.5c-2.1,11-8.8,14.9-16.6,15.9c-7.2,0.8-14.5-0.9-20.5-5
	c-18.5-13-33.1-1.7-34.3,10.3c-1.6,17.2,8.1,26.3,22.5,26.1c14-0.2,16.7-5.7,27.5-6.6c10.5-0.9,15.9,3.3,20.8,12.2
	c4.4,8.1,2.6,16.2-2.8,17.6c-17.9,4.5-5.7,26.9,7.4,15.3c3.8-3.4,8.7-1.1,12.4,2.5c5.2,5,6.1,11.3,5.9,17.1
	c-0.5,17.1-15,17.9-21,22.7c-11.6,9.3-10.1,28,3,32.9c16.9,6.4,28.5-9.8,31-25c1.7-10.9,2.3-17.4,10-21c5.7-2.7,18.7-1.6,24.4,3.4
	c4.9,4.3,6.7,11.3,3.1,15.5c-7.7,9.1-5.2,21.1,7.1,22.1c11.1,0.9,12.9-11.7,10.2-21.4c-1.7-5.9,3.6-16.7,18.6-17.7
	c13-0.9,18.7,9.5,21.4,18.4c3.1,10-0.7,17.2,2.3,29.9C244.5,332.3,260.8,334,270.3,325.7L270.3,325.7z"/>
</svg>