<?xml version="1.0" encoding="utf-8"?>
<svg version="1.1" xmlns="http://www.w3.org/2000/svg" xmlns:xlink="http://www.w3.org/1999/xlink" x="0px" y="0px"
	 viewBox="0 0 520 347.9" style="enable-background:new 0 0 520 347.9;" xml:space="preserve">
<path fill="#A51DE1" d="M449.4,272.2c-17.9,19.1-38.1,2.3-47.8,7.7c-8.5,4.7,1.4,19.2-18.8,37c-14.7,13-35.6,14.2-55.2,1.8
	c-20.2-12.9-23.4-39.1-20.7-55c0-0.1,0-0.1,0-0.2c-18.2,0.2-37,20-34.7,37.8c1.5,11.4,18.1,21.3,10.9,37
	c-3.8,8.3-17.6,11.4-25.4,5.3c-12.5-9.5-4.5-19.4-6.8-30.8c-2.6-13.1-15.1-21.4-30.6-21.6c-22.4-0.4-20.7,15.7-33.3,14.5
	c-8.2-0.8-13.7-7.3-14.9-17.2c-1.2-9.4-15.8-32.2-41.8-25.5c-19.5,5-18.3,23.7-41.6,27.6c-12.4,2.1-20.8-0.1-25.8-9.9
	c-4.9-9.5-1.1-21,12.5-28.8c14.4-8.2,31.2-1.5,43.7-16.8c10.9-13.3,3.9-34.1-7.1-44c-6.9-6.2-12.5-7.3-25.9-4.3
	c-30.8,6.8-23.8-43.6,11-29.7c8.7,3.5,20.8-1.9,26.8-9.2c7.5-9.1,12.9-25.9,5.2-35.5c-9.3-11.5-21.4-8.3-31.5-16.5
	c-15.8-13-9.5-36.7,1.8-43.8c12.9-8.1,28.3-6.5,37.4,9.8c11.4,20.4,15.3,28.9,28.2,32.2c14.7,3.7,29.1-2.1,34.8-16
	c8.4-20.9-12.7-37.2-7.8-59.1c3.6-16,32.7-30.5,50.2-5.8c12.8,18.1-11.2,41.6-6.8,57.4c5,17.9,30,23.3,43.8,20.1
	c15.8-3.7,27.2,5.2,22.8,20.5c-2.1,7.2-0.9,19.7,6.6,27.9c7.7,8.5,14.8,12.7,26.6,12.3c10.9-0.4,14.3-8.1,27.5-13.1
	c17.2-6.5,35,3,37.6,24.2c1.8,14.9-7.8,25.7-18.6,28.3c-16.8,4-25.3-4.6-37.2-4.7c-15.1-0.1-20.1,11-25.9,26.7
	c-3.1,8-2.8,16.8,0.8,24.5c7.9-7.9,18.8-11.2,31-10.8c22.7,0.7,27.2,14.2,39.1,9.7c8.2-3.1,3.2-27.1,31.3-30.3
	C455.4,201.9,468.4,251.8,449.4,272.2z M477.7,171.5c-8.7-4.4-24.4-2.4-28.7,12.8c-4.4,15.6,15.5,27.7,27.3,20.3
	C487.9,197.2,490.7,178,477.7,171.5L477.7,171.5z M509.7,184.8c-9.8-1.7-15.9,11.2-10.6,18c5.2,6.7,17,7.1,20.2-1.2
	C521.4,196,519.2,186.5,509.7,184.8L509.7,184.8z M481.4,275.8c-4.6-2.5-12.8-2-15,5.6c-2.2,7.8,8.2,14.5,14.4,11.1
	C486.9,289.2,488.3,279.5,481.4,275.8L481.4,275.8z M28.7,119.3c-11.1,7.8-9.1,21.7-0.2,27.7s21.9-2.8,23.3-12.9
	C53.5,121.9,37.5,113.2,28.7,119.3z M186.8,324.1c-6.9,1.2-12,9.7-7.1,15.3c3.2,3.8,11.1,5.9,16.1-0.4
	C200.9,332.5,193.8,322.9,186.8,324.1L186.8,324.1z M152.4,319.2c-10.5,1.8-18.2,14.7-10.8,23.2c4.9,5.7,16.8,9,24.3-0.6
	C173.8,332,163.1,317.4,152.4,319.2L152.4,319.2z M40.6,161.3c-3.6,1-5.7,4.8-4.6,8.4c0.1,0.4,0.3,0.8,0.5,1.2
	c2.4,4.8,10,3.3,11.3-1.2C48.9,165.3,45.3,160,40.6,161.3z M7.4,146.6c-4.7,1.3-9.8,7.4-6.2,14.4c3.6,7.2,15,4.9,16.8-1.8
	C19.8,152.5,14.4,144.6,7.4,146.6z M276.3,14.1c1.8-6.6-3.6-14.6-10.6-12.6c-4.6,1.3-9.7,7.4-6.2,14.4
	C263.1,23.1,274.5,20.8,276.3,14.1z M323.7,105c8.7,5.5,19.6-4.5,17.2-13.1c-2.3-8.4-13.5-13.5-19.8-6.7
	C316.8,89.8,315.2,99.7,323.7,105L323.7,105z M334.9,73.3c5-2,7.4-9.1,2.8-12.5c-3-2.3-9.2-2.6-11.9,2.9
	C323.1,69.3,329.9,75.3,334.9,73.3z"/>
</svg>