<?xml version="1.0" encoding="utf-8"?>
<svg version="1.1" xmlns="http://www.w3.org/2000/svg" xmlns:xlink="http://www.w3.org/1999/xlink" x="0px" y="0px"
	 viewBox="0 0 314.5 316.7" style="enable-background:new 0 0 314.5 316.7;" xml:space="preserve">
<path fill="#A51DE1" d="M186.6,15.8c10.6,2.5,15.5,11.9,14.9,21.5c-0.8,12.4-9.4,17.3-15.9,27.2c-4.4,6.7-1.3,17,5.3,23.8c7.7,7.9,20,10,25.8,6.6
	c8.6-5,7.1-9.5,16.2-16.7c7.7-6,21.4-4.4,25.6,3.3c4.9,9,0.3,20.5-9.6,24.7c-6.2,2.6-18.5,2.7-22.7,10.8
	c-3.8,7.4-0.2,26.6,10.2,31.2c14.2,6.2,23-10.4,42.2-5.9c19.8,4.6,23.8,28.5,4.1,36.5c-16.6,6.7-31.2-5.3-40.8-4.1
	c-16.1,1.9-19,18.3-18.1,30.7c0.5,6.1,3.8,11.4,11.8,13c6.8,1.3,10.4,10,7.6,15.2c-3.4,6.3-14.5,6.9-17.8,0.5
	c-2.5-4.9-5-6.7-8.3-7.2c-9.5-1.6-21.1,7-22.3,17c-0.7,5.5-0.2,14.8,6.1,20.4s8.8,14.9,5.1,21.3c-3.4,6-12.8,7.7-18.4,3.7
	c-6.3-4.6-9.1-12.1-9-20.9c0.1-10.3-4.2-14.7-10.1-17c-6.5-2.5-29.9-1.7-34.8,12.5c-2.4,7,3.2,14.8,3.4,29.6
	c0.2,17.3-9.9,25.4-25.2,22.8c-12.9-2.2-16.1-11.4-15.5-21.7c0.8-12.7,6-19.4,12.9-27.3c7.3-8.2-2.4-23.8-12.5-25.3
	c-10.7-1.5-19.4-2.9-22-16.4c-1.8-9-8.8-22.1-21.5-21.3c-17.1,1-24.2,25.1-44.1,14.7c-12.2-6.3-11.5-25.1-2.5-30.8
	c10.2-6.4,21.1-3.6,30.5-3.4c11.3,0.3,15.1-9,15.7-20.3c0.5-11.3-4.5-20.2-12.3-21.4c-7.2-1.1-15.6,1.9-21.9-5
	c-6.8-7.5-3.1-21.6,9.6-20.9c12.9,0.7,10,8.4,21.4,11.3c11.2,2.9,23.2-18.9,19-28.9c-7.1-17-31.6-4.6-40.6-27
	c-3.9-9.6-0.6-21.8,8.6-27.1s22.5-2.9,29,4.9c7.5,9,6.1,17.6,15.1,25.1c8.3,7,18.6,3.5,24.3-0.6c15.1-10.7,26.5-7.1,36.1-5.4
	c5.9,1,14.8,0.8,18.8-8.3c5-11.4-1.7-16.1,3.1-31.3C165.4,22.2,174.6,13,186.6,15.8z M101.8,28.3c-7.7-5.2-19,2.4-20.2,11.2
	c-1.4,10.6,12.4,18.1,20,12.8C111.3,45.5,109.6,33.5,101.8,28.3L101.8,28.3z M305.5,118.4c-8.7-1.7-14.4,9.7-9.8,15.8
	c4.5,6.1,15,6.7,18-0.7C315.7,128.5,314,120.1,305.5,118.4z M107.6,2.6c-2.1-4.2-8.7-2.8-9.8,1.1c-1,3.8,2.1,8.4,6.2,7.3
	c3.1-0.9,4.9-4.2,4-7.3C107.9,3.2,107.8,2.9,107.6,2.6z M130.5,19.2c-3.2-6.2-13-4.2-14.6,1.6c-1.6,5.7,3.2,12.6,9.2,10.9
	C129.2,30.5,133.6,25.3,130.5,19.2L130.5,19.2z M231.9,266.7c-3.1-6.2-13-4.2-14.6,1.6c-1.6,5.7,3.1,12.6,9.2,10.9
	C230.5,277.9,235,272.7,231.9,266.7z M62.6,249.2c-9.9-2-16.4,11.1-11.2,18.1c5.1,6.9,17.2,7.7,20.6-0.8
	C74.3,260.8,72.3,251.1,62.6,249.2z M289,118.3c0.5-5.4-6.8-8.2-10.3-5c-3.4,3.1-3.1,9.6,1.6,11c3.6,1,7.4-1.1,8.5-4.7
	C288.9,119.1,288.9,118.7,289,118.3L289,118.3z M62.1,233.5c0.5-5.4-6.8-8.2-10.3-5c-3.4,3.1-3.1,9.6,1.6,11c3.6,1,7.4-1.1,8.5-4.7
	C62,234.4,62.1,234,62.1,233.5z"/>
</svg>