<?xml version="1.0" encoding="utf-8"?>
<svg version="1.1" xmlns="http://www.w3.org/2000/svg" xmlns:xlink="http://www.w3.org/1999/xlink" x="0px" y="0px"
	 viewBox="0 0 252.3 226.4" style="enable-background:new 0 0 252.3 226.4;" xml:space="preserve">
<path fill="#A51DE1" d="M48.3,28.7c-3.1-4.2-1.2-9.5,2.8-12.4c10.2-7.1,18.4,9,8.7,15.3C56,34.1,50.7,32,48.3,28.7z M240.6,106.5
	c-6.8,8,7.4,16.3,11.1,8.1C254.7,107.8,245.8,100.2,240.6,106.5z M53.8,7.3c4.4-1.1,3.5-8-1.2-7.2C48.1,1,49.4,8.4,53.8,7.3z
	 M72.5,16.5c6.6-1.6,5.2-12.2-1.9-10.7C64,7.2,66.1,18,72.5,16.5z M234.3,165.6c-3.5-2-7.4,0.3-8.8,3.9c-3,7.6,9.1,13.3,12.4,5.9
	C239.9,171.2,238.1,167.8,234.3,165.6z M234.2,184c-5.1-2-8.3,6.2-3.4,7.8S239.4,186.1,234.2,184L234.2,184z M10.2,96.8
	c-8.9-3.5-14.6,10.9-5.8,13.8S19.4,100.5,10.2,96.8L10.2,96.8z M48.5,200.2c-3.8-1.1-6.3,1-7.5,3.7c-1.2,2.5-0.2,5.5,2.3,6.7
	c0.2,0.1,0.3,0.2,0.5,0.2c2.7,1.3,6,0.2,7.4-2.5c0-0.1,0.1-0.2,0.1-0.3C52.3,205.8,52.3,201.2,48.5,200.2z M190.1,160.1
	c4.6-4.2,7.4-7.4,8.9-15.9c1.4-7.7,12.3-4.4,14.9-2.3c4.4,3.5,9.9,5.4,15.5,5.2c4.5-0.3,8.4-3.4,8.8-7.4c0.5-5.5-5.1-9.5-9.9-10.7
	c-5-1.2-10.8,0.4-16.2,0.2c-4.7-0.2-9.8-2.3-9.2-10.2c0.2-2.8,3.6-6.5,8.6-5.6c10.7,1.9,14.6-2,13.7-6.6s-5.4-6.7-13.9-3.1
	c-5,2.1-9.5-0.1-10.7-2.1c-3.2-5.3-2.7-8-0.6-10.9c2.6-3.6,6.7-5.9,11.1-6.2c9.4-0.5,13.3-1.6,17.5-7.7c5-7,0.6-15.6-7.4-17.4
	c-7.1-1.5-13.5,2-17.9,7.3c-3.8,4.6-12.1,14.4-23.7,5.4c-13.3-10.3,9.4-26,13.5-32.3c9.4-14.3-4.6-30.6-20.1-22.8
	c-7.3,3.7-9,11.5-10,19c-0.8,6,0.7,13.7-5.2,16.8c-8.8,4.6-29.6,0.6-30.7-8.9c-0.8-7.2,1.4-11.9,2.9-18.7c1.6-7.5-0.5-15-8.8-17
	c-6.9-1.7-13.9,2.3-16,9c-3.3,10.8,16.2,31.5,1.5,37.6c-4.1,1.7-8.8,1.7-11.1-0.4c-3.9-3.4-5.1-6.2-5.1-9.7c0-5.2-5.6-7.5-8.7-6.5
	c-4.1,1.4-7.3,6.3-2,11.8c3.5,3.6,5.8,5.8,5.9,10c0,7.6-3.8,9.2-6.1,9.8c-12.2,3.5-17-17.8-23.5-24.1c-8.6-8.4-22.9-5.2-26.2,6.7
	C25.8,67.2,39.4,78.1,52,80c7.8,1.2,12.2,5.6,10.9,12.2c-1.1,5.9-7.5,9.3-14.3,4.4S34,91.6,32,97.8s5.1,11.5,13.5,10.2
	c7-1.1,12.9,1.9,12.1,8.8c-0.7,5.4-4.2,8.1-11.4,7s-13.6-6.2-22.2-3.4c-5.7,1.7-8.9,7.6-7.2,13.3c0.4,1.2,1,2.4,1.7,3.5
	c5,7,14.9,6.2,22.5,3.6c4.5-1.6,12.5-6.1,18-1.1c5,4.5,0.8,16.1-4.1,20.7c-4.9,4.7-16.7,4.7-18.9,11.7c-2.1,6.6,3.1,11.6,7.1,12.1
	c7.5,0.9,9.4-5.1,12.9-10.9c2.5-4.2,9.9-10,15.1-2.1c2.3,3.5,4.4,13,11.5,14c10.8,1.5,12.8,10.6,8.4,15.9c-3.7,4.5-7.2,9.5-7.2,15.2
	c0,5.4,4.1,9.8,9.5,10.1c6.7,0.3,10.4-5.4,10.2-11.1c-0.2-5-1.3-12,1.3-16.6c3.5-6,19.7-4.7,18.6,4.4c-0.4,4,1.2,8.2,6.7,8.1
	c3.6,0,6.8-3.8,5.5-9.9c-0.8-3.6,1.7-6,4.8-7.8s8.7-1,10.4-0.2c13.1,6.3,1.4,18.5,11.7,27.3c3.2,2.5,7.5,3.1,11.2,1.4
	c3.1-1.7,4.6-4.1,4.4-8.3c-0.4-7.3-6.9-8.8-10-16.3c-2.7-6.6-2.9-13.5,4.7-16.8c7.9-3.4,14,4.1,16.6,8.7c2.4,4.4,4.8,6.8,10.1,7.8
	c7.8,1.4,12-7.9,6.2-13.3s-8.3-4.8-13.5-7.9C188.2,173.5,184.6,165.1,190.1,160.1z"/>
</svg>