<?xml version="1.0" encoding="utf-8"?>
<svg version="1.1" xmlns="http://www.w3.org/2000/svg" xmlns:xlink="http://www.w3.org/1999/xlink" x="0px" y="0px"
	 viewBox="0 0 371.2 362.1" style="enable-background:new 0 0 371.2 362.1;" xml:space="preserve">
<path fill="#A51DE1" d="M371,173.5c1.9,16.5-11.3,28.2-32.6,26.8c-19.4-1.3-29.6-10.8-49.4-3.8c-15.3,5.4-23.4,31.3-21.5,39
	c2.5,10,9.3,20.1,18.1,25.3c10.5,6.2,16.4,16.5,15.1,26.3c-2.5,17.9-24.5,18.8-35.5-2.8c-8.7-17.1-13.4-35.9-27.5-28.4
	c-27.8,14.9-44.7,0.3-51.7,23.3c-2.7,8.7,2.9,24.5-6.2,30c-8.9,5.4-19.4,2.1-23.7-6.8c-5.3-11-1.4-19.6,3.3-27
	c6.4-10.1,9.5-22.2,2-26.7c-20.1-12.1-18.9-26.8-32.2-30c-6.5-1.5-21.1-0.6-30,3.3c-11.9,5.2-25.2,11.1-36.7,5.1
	c-11.8-6.2-10.5-24.4,3.7-30.3c13.8-5.7,30.9-2.8,34.3-2.7c16.8,0.2,25.1-11.7,25.6-32.4c0.5-22.4,11-18.2,15.7-40.5
	c2.5-11.9,1.3-16.2-19.2-27.9c-18.2-10.5-26.3-33.9-12.1-44.7c14.9-11.3,32.5,1.1,37.3,20.3c5.3,21.3,11.3,41.6,27.3,35.9
	c27.8-10,42.7-5.5,62.6,4.2c10.4,5,18.3-10.3,22.7-27.2c7.4-28.3,19.8-36.3,36.4-36.2c17.5,0.1,25,14.7,19.3,26.3
	c-9.8,20.1-30.7,16.8-45.9,33.2c-7,7.6-11.2,23.4-2.2,29.2c14.2,9.3,15.3,18.5,15,29.5c-0.4,16,34.3,8,49.4,0
	C348.1,155.7,369.2,158.2,371,173.5z M76.6,162.4c5.4-13.3,0.6-36.2-22.2-40.7c-23.4-4.6-38.7,26-26.4,42.6
	C40.1,180.6,68.5,182.3,76.6,162.4L76.6,162.4z M235.3,39.8c9.5-2.8,19.9-15.5,12.5-30.4c-7.5-15.3-30.7-10.6-34.4,3.6
	C209.8,27.1,221.1,43.9,235.3,39.8z M19.1,183.5c-9.9-2.8-21.6,5.4-18.6,16c2,7.1,11,14.8,21.4,9.5
	C32.6,203.5,29.1,186.3,19.1,183.5L19.1,183.5z M315.6,336.4c-5.4,4.7-8.4,16,0.8,23.2c9.4,7.4,23.1-2.8,21.3-13
	C336,336.6,323.7,329.3,315.6,336.4L315.6,336.4z"/>
</svg>